<?xml version="1.0" encoding="UTF-8" standalone="no"?>
<!-- Generator: Adobe Illustrator 21.0.0, SVG Export Plug-In . SVG Version: 6.00 Build 0)  -->

<svg
   version="1.1"
   id="Layer_2"
   x="0px"
   y="0px"
   viewBox="0 0 247.39999 306.5"
   xml:space="preserve"
   sodipodi:docname="sa.svg"
   width="247.39999"
   height="306.5"
   inkscape:version="1.1.2 (b8e25be8, 2022-02-05)"
   xmlns:inkscape="http://www.inkscape.org/namespaces/inkscape"
   xmlns:sodipodi="http://sodipodi.sourceforge.net/DTD/sodipodi-0.dtd"
   xmlns="http://www.w3.org/2000/svg"
   xmlns:svg="http://www.w3.org/2000/svg"><defs
   id="defs22" /><sodipodi:namedview
   id="namedview20"
   pagecolor="#ffffff"
   bordercolor="#666666"
   borderopacity="1.0"
   inkscape:pageshadow="2"
   inkscape:pageopacity="0.0"
   inkscape:pagecheckerboard="0"
   showgrid="false"
   inkscape:zoom="1.4275"
   inkscape:cx="125.04378"
   inkscape:cy="146.76007"
   inkscape:window-width="1296"
   inkscape:window-height="793"
   inkscape:window-x="0"
   inkscape:window-y="25"
   inkscape:window-maximized="0"
   inkscape:current-layer="Layer_2" />
<style
   type="text/css"
   id="style2">
	.st0{fill:#FFFFFF;}
	.st1{fill:#C2CCD2;}
</style>
<g
   id="Layer_2_1_"
   transform="translate(-75,-53)">
	<polygon
   class="st0"
   points="267.1,113.8 233.1,174.2 188.6,174.2 221.8,115.6 221.8,53 187.4,53 169.2,86.5 166,113.8 117.6,200 125.8,220.3 155.9,220.3 142.2,255.1 116.4,227.4 119.5,268.1 75,269.9 110.4,294.9 85.2,332.5 125.9,319.2 142.6,359.5 155.4,315.6 200.9,327.3 171.5,293.3 207.6,263.5 170.3,265.9 210.7,220.3 263.7,220.3 322.4,116.3 322.4,53 289.4,53 270.4,86.8 "
   id="polygon4" />
	<polygon
   points="267.1,113.8 233.1,174.2 188.6,174.2 221.8,115.6 221.8,53 187.4,53 169.2,86.5 166,113.8 117.6,200 125.8,220.3 155.9,220.3 142.2,255.1 116.4,227.4 119.5,268.1 75,269.9 110.4,294.9 85.2,332.5 125.9,319.2 142.6,359.5 155.4,315.6 200.9,327.3 171.5,293.3 207.6,263.5 170.3,265.9 210.7,220.3 263.7,220.3 322.4,116.3 322.4,53 289.4,53 270.4,86.8 "
   id="polygon6" />
	<polygon
   class="st1"
   points="309.6,62.1 294.1,62.1 282.3,83.1 298.4,83.1 "
   id="polygon8" />
	<polygon
   class="st1"
   points="209.6,62.1 192.8,62.1 181.2,83.2 198.5,83.1 "
   id="polygon10" />
	<polygon
   class="st1"
   points="194.1,91.6 179.1,91.6 177.1,109.6 192.7,109.6 "
   id="polygon12" />
	<polygon
   class="st1"
   points="294.9,91.6 279.8,91.6 277.8,109.6 293.5,109.6 "
   id="polygon14" />
	<path
   class="st1"
   d="m 274.5,120.4 -35.2,62 h -84.5 l 35.2,-62 h -16.6 l -42.5,75 h 47.2 l -35.7,79.9 -14.8,-16.5 0.8,19.4 -23.9,1.4 19.2,13.5 -13.7,20.3 22.1,-7.2 9.1,21.9 6.9,-23.8 24.6,6.3 -15.8,-18.4 19.5,-16.1 -30.2,1.4 55.5,-82 H 249 l 41.8,-75 z M 136.3,297.8 c -4,0 -7.2,-3.2 -7.2,-7.1 0,-4 3.2,-7.1 7.2,-7.1 4,0 7.1,3.2 7.1,7.1 0,3.9 -3.2,7.1 -7.1,7.1"
   id="path16" />
</g>
</svg>
